<?xml version="1.0" encoding="UTF-8" standalone="no"?>
<svg
   xmlns:dc="http://purl.org/dc/elements/1.1/"
   xmlns:cc="http://creativecommons.org/ns#"
   xmlns:rdf="http://www.w3.org/1999/02/22-rdf-syntax-ns#"
   xmlns:svg="http://www.w3.org/2000/svg"
   xmlns="http://www.w3.org/2000/svg"
   viewBox="0 0 692 262.66666"
   height="262.66666"
   width="692"
   xml:space="preserve"
   id="svg2"
   version="1.1"><metadata
     id="metadata8"><rdf:RDF><cc:Work
         rdf:about=""><dc:format>image/svg+xml</dc:format><dc:type
           rdf:resource="http://purl.org/dc/dcmitype/StillImage" /></cc:Work></rdf:RDF></metadata><defs
     id="defs6" /><g
     transform="matrix(1.3333333,0,0,-1.3333333,0,262.66667)"
     id="g10"><g
       transform="scale(0.1)"
       id="g12"><path
         id="path14"
         style="fill:#1a1a1a;fill-opacity:1;fill-rule:evenodd;stroke:none"
         d="m 2818.72,687.031 c -12.26,-170.679 -184.55,-236.968 -221.25,-202.605 -69.4,65.008 197.16,195.851 221.25,202.605 z m 2356.55,50.453 c -348.29,54.821 -789.22,-16.211 -1013.53,-65.671 -138.08,-30.469 -652.91,-180.532 -742.96,-68.852 -58.65,72.742 -5.63,164.453 13.79,236.695 -12.86,-7.41 -41.77,-39.488 -56.74,-54.258 -19.82,-19.539 -30.52,-33.281 -54.21,-54.808 -214.33,-195.121 -301.35,-70.633 -225.29,55.664 l 46.12,66.918 c -54.65,-31.668 -189.38,-95.922 -240.59,-125.293 -6,-106.68 -27.55,-160.512 -89.17,-208.738 -175.6,-137.375 -378.67,-47.602 -177.34,92.414 41.9,29.136 145.42,85.195 180.99,102.332 -11.13,68.941 -31.96,115.57 -29.6,195.976 -58.53,-48.511 -289.4,-291.648 -492.53,-344.304 -144.35,-37.399 -153.36,97.531 -158.79,108.504 L 1948.7,541.52 c -55.71,-37.5 -137.67,-84.95 -209.76,-111.075 -95.33,-34.539 -193.72,-18.437 -211.48,77.895 -15.82,85.957 30,191.832 55.34,256.137 -25.82,-11.532 -51.24,-33.258 -79.22,-50.243 C 1189.32,523.488 837.555,365.238 467.305,313.441 364.797,299.074 78.3672,270.719 9.96875,336.555 479.285,260.422 1091.76,488.391 1485.79,732.047 c 126.6,78.297 102.79,58.601 155.11,165.683 101.08,206.88 354.18,602.05 497.43,773.98 64.83,77.82 231.94,271.43 349.68,285.95 126.14,15.58 74,-137.17 42.82,-200.45 -73.04,-148.17 -167.51,-247.62 -263.24,-366.12 -46.04,-57 -97.16,-110.05 -153.7,-167.22 -67.72,-68.45 -164.66,-173.24 -239.28,-238.878 -38.36,-33.734 -143.28,-112.406 -161.77,-153.449 -16.02,-35.52 -33.05,-75.355 -47.12,-109.621 -118.58,-288.762 -23.76,-316.469 214.89,-184.774 67.97,37.532 135.87,79.176 195.52,125.27 36.12,27.922 43.85,33.191 56.44,43.898 3.98,65.895 36.47,123.75 72.72,177.657 120.68,179.457 389.18,234.407 289.32,43.925 -49.46,-94.312 -180.7,-161.527 -272.7,-212.699 -20.32,-43.121 -11.53,-86.101 28.5,-106.082 80.66,-24.367 193.24,71.824 276.08,133.766 205.22,153.441 341.78,378.417 495.87,328.917 -11.06,-23.13 6.65,-7.33 -44.31,-28.1 -39.14,-15.98 -76.67,-47.63 -96.64,-84.884 -18.05,-33.703 -18.71,-68.949 -8.43,-107.406 6.45,-24.215 16.81,-74.492 24.38,-97.215 35.43,13.551 129.07,61.547 162.6,80.586 150.89,85.68 354.8,253.949 491.8,131.524 3.92,-82.567 -252.47,-405.918 66.51,-374.395 167.02,16.528 348.98,68.727 512.05,104.82 96.97,21.465 746.03,153.633 1044.95,40.754 z M 3488.23,962.609 c -7.26,-52.296 -296.2,-344.074 -338.17,-277.007 -39.59,63.3 200.57,322.698 338.17,277.007 z M 2231.39,748.828 c 194.66,414.252 423.89,253.452 0,0 z m -478.73,165.531 c 12.33,42.774 57.42,111.021 78.92,149.851 104.74,189.05 315.42,511.98 447.69,672.51 20.67,25.09 189.77,228.58 246.99,177.21 56.67,-50.89 -102.53,-281.68 -122.2,-307.93 -122.83,-163.87 -185.43,-223.13 -308.53,-363.72 -55.07,-62.87 -274.65,-276.678 -342.87,-327.921" /><path
         id="path16"
         style="fill:none;stroke:#1a1a1a;stroke-width:2.83459997;stroke-linecap:butt;stroke-linejoin:miter;stroke-miterlimit:22.92560005;stroke-dasharray:none;stroke-opacity:1"
         d="m 2818.72,687.031 c -12.26,-170.679 -184.55,-236.968 -221.25,-202.605 -69.4,65.008 197.16,195.851 221.25,202.605 z m 2356.55,50.453 c -348.29,54.821 -789.22,-16.211 -1013.53,-65.671 -138.08,-30.469 -652.91,-180.532 -742.96,-68.852 -58.65,72.742 -5.63,164.453 13.79,236.695 -12.86,-7.41 -41.77,-39.488 -56.74,-54.258 -19.82,-19.539 -30.52,-33.281 -54.21,-54.808 -214.33,-195.121 -301.35,-70.633 -225.29,55.664 l 46.12,66.918 c -54.65,-31.668 -189.38,-95.922 -240.59,-125.293 -6,-106.68 -27.55,-160.512 -89.17,-208.738 -175.6,-137.375 -378.67,-47.602 -177.34,92.414 41.9,29.136 145.42,85.195 180.99,102.332 -11.13,68.941 -31.96,115.57 -29.6,195.976 -58.53,-48.511 -289.4,-291.648 -492.53,-344.304 -144.35,-37.399 -153.36,97.531 -158.79,108.504 L 1948.7,541.52 c -55.71,-37.5 -137.67,-84.95 -209.76,-111.075 -95.33,-34.539 -193.72,-18.437 -211.48,77.895 -15.82,85.957 30,191.832 55.34,256.137 -25.82,-11.532 -51.24,-33.258 -79.22,-50.243 C 1189.32,523.488 837.555,365.238 467.305,313.441 364.797,299.074 78.3672,270.719 9.96875,336.555 479.285,260.422 1091.76,488.391 1485.79,732.047 c 126.6,78.297 102.79,58.601 155.11,165.683 101.08,206.88 354.18,602.05 497.43,773.98 64.83,77.82 231.94,271.43 349.68,285.95 126.14,15.58 74,-137.17 42.82,-200.45 -73.04,-148.17 -167.51,-247.62 -263.24,-366.12 -46.04,-57 -97.16,-110.05 -153.7,-167.22 -67.72,-68.45 -164.66,-173.24 -239.28,-238.878 -38.36,-33.734 -143.28,-112.406 -161.77,-153.449 -16.02,-35.52 -33.05,-75.355 -47.12,-109.621 -118.58,-288.762 -23.76,-316.469 214.89,-184.774 67.97,37.532 135.87,79.176 195.52,125.27 36.12,27.922 43.85,33.191 56.44,43.898 3.98,65.895 36.47,123.75 72.72,177.657 120.68,179.457 389.18,234.407 289.32,43.925 -49.46,-94.312 -180.7,-161.527 -272.7,-212.699 -20.32,-43.121 -11.53,-86.101 28.5,-106.082 80.66,-24.367 193.24,71.824 276.08,133.766 205.22,153.441 341.78,378.417 495.87,328.917 -11.06,-23.13 6.65,-7.33 -44.31,-28.1 -39.14,-15.98 -76.67,-47.63 -96.64,-84.884 -18.05,-33.703 -18.71,-68.949 -8.43,-107.406 6.45,-24.215 16.81,-74.492 24.38,-97.215 35.43,13.551 129.07,61.547 162.6,80.586 150.89,85.68 354.8,253.949 491.8,131.524 3.92,-82.567 -252.47,-405.918 66.51,-374.395 167.02,16.528 348.98,68.727 512.05,104.82 96.97,21.465 746.03,153.633 1044.95,40.754 z M 3488.23,962.609 c -7.26,-52.296 -296.2,-344.074 -338.17,-277.007 -39.59,63.3 200.57,322.698 338.17,277.007 z M 2231.39,748.828 c 194.66,414.252 423.89,253.452 0,0 z m -478.73,165.531 c 12.33,42.774 57.42,111.021 78.92,149.851 104.74,189.05 315.42,511.98 447.69,672.51 20.67,25.09 189.77,228.58 246.99,177.21 56.67,-50.89 -102.53,-281.68 -122.2,-307.93 -122.83,-163.87 -185.43,-223.13 -308.53,-363.72 -55.07,-62.87 -274.65,-276.678 -342.87,-327.921 z" /><path
         id="path18"
         style="fill:#1a1a1a;fill-opacity:1;fill-rule:nonzero;stroke:none"
         d="M 1709,7.99609 V 204.77 h 25.15 v -75.684 h 112.48 v 75.684 h 25.46 V 7.99609 h -25.46 V 106.793 H 1734.15 V 7.99609 Z m 468.28,16.78521 c 11.54,0 22.6,2.0195 33.01,6.1015 10.45,4.082 19.87,10.0469 28.26,17.8438 8.29,7.7031 14.6,16.4179 18.94,26.1875 4.35,9.7734 6.51,20.1367 6.51,31.0549 0,11.008 -2.16,21.511 -6.55,31.465 -4.4,9.953 -10.71,18.714 -18.9,26.328 -8.29,7.703 -17.66,13.574 -28.12,17.613 -10.41,4.035 -21.51,6.055 -33.15,6.055 -11.74,0 -22.89,-2.02 -33.4,-6.055 -10.5,-4.039 -19.78,-9.91 -27.87,-17.613 -8.29,-7.797 -14.6,-16.606 -18.94,-26.465 -4.34,-9.863 -6.52,-20.32 -6.52,-31.328 0,-10.9182 2.13,-21.2385 6.42,-30.9182 4.29,-9.6758 10.66,-18.4336 19.04,-26.3242 8.49,-7.8907 17.91,-13.8516 28.22,-17.8907 10.36,-4.0351 21.41,-6.0546 33.05,-6.0546 z m 113.07,81.1877 c 0,-14.0823 -2.81,-27.3362 -8.39,-39.7659 -5.57,-12.4804 -13.71,-23.5312 -24.42,-33.2109 -10.7,-9.6797 -23.04,-17.1094 -36.95,-22.3828 -13.96,-5.23049 -28.36,-7.84377 -43.31,-7.84377 -14.95,0 -29.3,2.61328 -43.16,7.84377 -13.82,5.2734 -26.1,12.7031 -36.81,22.3828 -10.8,9.7695 -18.99,20.8711 -24.66,33.3476 -5.62,12.4297 -8.44,25.6368 -8.44,39.6292 0,14.082 2.82,27.34 8.44,39.859 5.67,12.473 13.86,23.621 24.66,33.391 10.61,9.586 22.85,16.972 36.76,22.152 13.86,5.188 28.26,7.801 43.21,7.801 15.04,0 29.5,-2.613 43.46,-7.801 13.91,-5.18 26.19,-12.566 36.8,-22.152 10.71,-9.676 18.85,-20.778 24.42,-33.254 5.58,-12.524 8.39,-25.82 8.39,-39.996 z m 191.54,98.801 h 25.45 V 82.3008 c 0,-19.9063 4.54,-34.4922 13.66,-43.8047 9.13,-9.3125 23.39,-13.9883 42.88,-13.9883 19.48,0 33.73,4.6758 42.86,13.9883 9.13,9.3125 13.67,23.8984 13.67,43.8047 V 204.77 h 25.45 V 82.3008 c 0,-26.6055 -6.81,-46.5117 -20.42,-59.7227 -13.67,-13.20701 -34.19,-19.81247 -61.62,-19.81247 -27.37,0 -47.85,6.60546 -61.51,19.81247 -13.61,13.211 -20.42,33.1172 -20.42,59.7227 z m 442.33,-87.563 c 13.76,-5.461 24.17,-12.707 31.13,-21.7422 7.01,-9.039 10.51,-19.7695 10.51,-32.1093 0,-18.0703 -6.22,-32.6563 -18.6,-43.711 -12.38,-11.05466 -28.76,-16.60544 -49.23,-16.60544 -16.67,0 -30.64,3.94922 -41.93,11.88284 -11.25,7.9336 -18.85,19.1719 -22.84,33.7578 l 22.84,10.5039 c 3.1,-11.9258 8.19,-20.9609 15.29,-27.1094 7.05,-6.1445 15.93,-9.2187 26.64,-9.2187 12.63,0 22.84,3.3945 30.68,10.1367 7.79,6.7891 11.69,15.5937 11.69,26.4219 0,8.8047 -2.71,16.4218 -8.19,22.9297 -5.42,6.5156 -13.61,11.9765 -24.61,16.4687 l -25.75,10.2305 c -14.06,5.457 -24.57,12.477 -31.43,21.098 -6.9,8.578 -10.35,18.898 -10.35,30.914 0,13.988 5.57,25.55 16.77,34.675 11.2,9.129 25.45,13.715 42.82,13.715 12.68,0 23.72,-2.523 33,-7.519 9.32,-5.047 16.57,-12.434 21.75,-22.246 l -20.82,-12.34 c -4.68,7.613 -10.01,13.254 -15.88,16.973 -5.87,3.714 -12.53,5.593 -19.93,5.593 -9.47,0 -17.22,-2.707 -23.23,-8.074 -6.02,-5.363 -9.03,-12.199 -9.03,-20.547 0,-6.972 2.32,-13.027 6.95,-18.121 4.59,-5.137 11.8,-9.629 21.51,-13.574 z M 3150.59,7.99609 V 204.77 h 111.59 v -21.469 h -86.43 v -56.418 h 86.43 v -21.742 h -86.43 V 29.7383 h 86.43 V 7.99609 h -111.59" /><path
         id="path20"
         style="fill:none;stroke:#1a1a1a;stroke-width:2.83459997;stroke-linecap:butt;stroke-linejoin:miter;stroke-miterlimit:22.92560005;stroke-dasharray:none;stroke-opacity:1"
         d="M 1709,7.99609 V 204.77 h 25.15 v -75.684 h 112.48 v 75.684 h 25.46 V 7.99609 h -25.46 V 106.793 H 1734.15 V 7.99609 Z m 468.28,16.78521 c 11.54,0 22.6,2.0195 33.01,6.1015 10.45,4.082 19.87,10.0469 28.26,17.8438 8.29,7.7031 14.6,16.4179 18.94,26.1875 4.35,9.7734 6.51,20.1367 6.51,31.0549 0,11.008 -2.16,21.511 -6.55,31.465 -4.4,9.953 -10.71,18.714 -18.9,26.328 -8.29,7.703 -17.66,13.574 -28.12,17.613 -10.41,4.035 -21.51,6.055 -33.15,6.055 -11.74,0 -22.89,-2.02 -33.4,-6.055 -10.5,-4.039 -19.78,-9.91 -27.87,-17.613 -8.29,-7.797 -14.6,-16.606 -18.94,-26.465 -4.34,-9.863 -6.52,-20.32 -6.52,-31.328 0,-10.9182 2.13,-21.2385 6.42,-30.9182 4.29,-9.6758 10.66,-18.4336 19.04,-26.3242 8.49,-7.8907 17.91,-13.8516 28.22,-17.8907 10.36,-4.0351 21.41,-6.0546 33.05,-6.0546 z m 113.07,81.1877 c 0,-14.0823 -2.81,-27.3362 -8.39,-39.7659 -5.57,-12.4804 -13.71,-23.5312 -24.42,-33.2109 -10.7,-9.6797 -23.04,-17.1094 -36.95,-22.3828 -13.96,-5.23049 -28.36,-7.84377 -43.31,-7.84377 -14.95,0 -29.3,2.61328 -43.16,7.84377 -13.82,5.2734 -26.1,12.7031 -36.81,22.3828 -10.8,9.7695 -18.99,20.8711 -24.66,33.3476 -5.62,12.4297 -8.44,25.6368 -8.44,39.6292 0,14.082 2.82,27.34 8.44,39.859 5.67,12.473 13.86,23.621 24.66,33.391 10.61,9.586 22.85,16.972 36.76,22.152 13.86,5.188 28.26,7.801 43.21,7.801 15.04,0 29.5,-2.613 43.46,-7.801 13.91,-5.18 26.19,-12.566 36.8,-22.152 10.71,-9.676 18.85,-20.778 24.42,-33.254 5.58,-12.524 8.39,-25.82 8.39,-39.996 z m 191.54,98.801 h 25.45 V 82.3008 c 0,-19.9063 4.54,-34.4922 13.66,-43.8047 9.13,-9.3125 23.39,-13.9883 42.88,-13.9883 19.48,0 33.73,4.6758 42.86,13.9883 9.13,9.3125 13.67,23.8984 13.67,43.8047 V 204.77 h 25.45 V 82.3008 c 0,-26.6055 -6.81,-46.5117 -20.42,-59.7227 -13.67,-13.20701 -34.19,-19.81247 -61.62,-19.81247 -27.37,0 -47.85,6.60546 -61.51,19.81247 -13.61,13.211 -20.42,33.1172 -20.42,59.7227 z m 442.33,-87.563 c 13.76,-5.461 24.17,-12.707 31.13,-21.7422 7.01,-9.039 10.51,-19.7695 10.51,-32.1093 0,-18.0703 -6.22,-32.6563 -18.6,-43.711 -12.38,-11.05466 -28.76,-16.60544 -49.23,-16.60544 -16.67,0 -30.64,3.94922 -41.93,11.88284 -11.25,7.9336 -18.85,19.1719 -22.84,33.7578 l 22.84,10.5039 c 3.1,-11.9258 8.19,-20.9609 15.29,-27.1094 7.05,-6.1445 15.93,-9.2187 26.64,-9.2187 12.63,0 22.84,3.3945 30.68,10.1367 7.79,6.7891 11.69,15.5937 11.69,26.4219 0,8.8047 -2.71,16.4218 -8.19,22.9297 -5.42,6.5156 -13.61,11.9765 -24.61,16.4687 l -25.75,10.2305 c -14.06,5.457 -24.57,12.477 -31.43,21.098 -6.9,8.578 -10.35,18.898 -10.35,30.914 0,13.988 5.57,25.55 16.77,34.675 11.2,9.129 25.45,13.715 42.82,13.715 12.68,0 23.72,-2.523 33,-7.519 9.32,-5.047 16.57,-12.434 21.75,-22.246 l -20.82,-12.34 c -4.68,7.613 -10.01,13.254 -15.88,16.973 -5.87,3.714 -12.53,5.593 -19.93,5.593 -9.47,0 -17.22,-2.707 -23.23,-8.074 -6.02,-5.363 -9.03,-12.199 -9.03,-20.547 0,-6.972 2.32,-13.027 6.95,-18.121 4.59,-5.137 11.8,-9.629 21.51,-13.574 z M 3150.59,7.99609 V 204.77 h 111.59 v -21.469 h -86.43 v -56.418 h 86.43 v -21.742 h -86.43 V 29.7383 h 86.43 V 7.99609 Z" /></g></g></svg>